<svg width="203" height="12" viewBox="0 0 203 12" fill="none" xmlns="http://www.w3.org/2000/svg">
<path d="M6.6807 2.6352L6.4116 3.2085C5.9826 2.9511 5.538 2.8224 5.0778 2.8224C4.485 2.8224 4.017 2.994 3.6738 3.3372C3.3384 3.6726 3.1707 4.1367 3.1707 4.7295C3.1707 5.3145 3.3462 5.7786 3.6972 6.1218C4.0482 6.465 4.5084 6.6366 5.0778 6.6366C5.5302 6.6366 5.9748 6.5079 6.4116 6.2505L6.6807 6.8238C6.2205 7.1202 5.6628 7.2684 5.0076 7.2684C4.1964 7.2684 3.5451 7.0422 3.0537 6.5898C2.5701 6.1296 2.3283 5.5095 2.3283 4.7295C2.3283 3.9417 2.5662 3.3216 3.042 2.8692C3.5178 2.4168 4.173 2.1906 5.0076 2.1906C5.6628 2.1906 6.2205 2.3388 6.6807 2.6352ZM2.1645 7.3386C2.8899 8.0562 3.7596 8.415 4.7736 8.415C5.7876 8.415 6.6534 8.0562 7.371 7.3386C8.0964 6.621 8.4591 5.7513 8.4591 4.7295C8.4591 3.7077 8.0964 2.838 7.371 2.1204C6.6534 1.4028 5.7876 1.044 4.7736 1.044C3.7596 1.044 2.8899 1.4028 2.1645 2.1204C1.4469 2.838 1.0881 3.7077 1.0881 4.7295C1.0881 5.7513 1.4469 6.621 2.1645 7.3386ZM7.8156 7.7715C6.9732 8.6139 5.9592 9.0351 4.7736 9.0351C3.588 9.0351 2.574 8.6139 1.7316 7.7715C0.8892 6.9291 0.468 5.9151 0.468 4.7295C0.468 3.5439 0.8892 2.5299 1.7316 1.6875C2.574 0.8451 3.588 0.4239 4.7736 0.4239C5.9592 0.4239 6.9732 0.8451 7.8156 1.6875C8.6658 2.5299 9.0909 3.5439 9.0909 4.7295C9.0909 5.9151 8.6658 6.9291 7.8156 7.7715ZM16.4083 1.1376C15.6361 1.1376 14.8639 1.4067 14.0917 1.9449L13.8109 1.1961C14.6065 0.6267 15.5113 0.342 16.5253 0.342C17.3599 0.342 18.0073 0.5565 18.4675 0.985499C18.9277 1.4067 19.1578 1.9995 19.1578 2.7639C19.1578 3.5283 18.8809 4.3005 18.3271 5.0805C17.7733 5.8605 16.7359 6.8979 15.2149 8.1927V8.2161H19.1929V9H13.9279V8.2161C15.5893 6.8433 16.7125 5.7747 17.2975 5.0103C17.8903 4.2381 18.1867 3.5127 18.1867 2.8341C18.1867 2.2803 18.0346 1.8591 17.7304 1.5705C17.434 1.2819 16.9933 1.1376 16.4083 1.1376ZM23.8275 0.342C25.8867 0.342 26.9163 1.8045 26.9163 4.7295C26.9163 7.6545 25.8867 9.117 23.8275 9.117C22.8525 9.117 22.0959 8.7777 21.5577 8.0991C21.0195 7.4205 20.7504 6.2973 20.7504 4.7295C20.7504 3.1617 21.0195 2.0385 21.5577 1.3599C22.0959 0.6813 22.8525 0.342 23.8275 0.342ZM22.2129 7.5024C22.5717 8.0718 23.1099 8.3565 23.8275 8.3565C24.5451 8.3565 25.0833 8.0718 25.4421 7.5024C25.8009 6.9252 25.9803 6.0009 25.9803 4.7295C25.9803 3.4581 25.8009 2.5377 25.4421 1.9683C25.0833 1.3911 24.5451 1.1025 23.8275 1.1025C23.1099 1.1025 22.5717 1.3911 22.2129 1.9683C21.8619 2.5377 21.6864 3.4581 21.6864 4.7295C21.6864 6.0009 21.8619 6.9252 22.2129 7.5024ZM31.1063 9V1.5822H31.0829L28.778 3.7116L28.4153 2.9511L31.1063 0.459H32.0423V9H31.1063ZM38.3032 0.342C39.2548 0.342 39.9958 0.6267 40.5262 1.1961C41.0643 1.7577 41.3334 2.5572 41.3334 3.5946C41.3334 5.2248 40.9395 6.5196 40.1518 7.479C39.3718 8.4384 38.2837 8.9844 36.8874 9.117L36.7236 8.3331C37.6753 8.2317 38.4397 7.9314 39.0169 7.4322C39.5941 6.9252 40.0075 6.2115 40.2571 5.2911L40.2337 5.2794C39.6877 5.8878 38.9779 6.192 38.1042 6.192C37.2384 6.192 36.552 5.9385 36.0451 5.4315C35.538 4.9167 35.2845 4.2147 35.2845 3.3255C35.2845 2.4207 35.5576 1.6992 36.1036 1.161C36.6574 0.615 37.3906 0.342 38.3032 0.342ZM38.3032 1.1259C37.6402 1.1259 37.1254 1.317 36.7588 1.6992C36.4 2.0814 36.2206 2.6235 36.2206 3.3255C36.2206 3.9963 36.4078 4.5228 36.7822 4.905C37.1566 5.2794 37.6636 5.4666 38.3032 5.4666C38.9038 5.4666 39.3991 5.2677 39.7891 4.8699C40.1791 4.4721 40.3741 3.9573 40.3741 3.3255C40.3741 2.6313 40.1908 2.0931 39.8242 1.7109C39.4576 1.3209 38.9506 1.1259 38.3032 1.1259ZM50.1688 1.1259C49.1392 1.1259 48.3163 1.4535 47.7001 2.1087C47.0917 2.7561 46.7875 3.6297 46.7875 4.7295C46.7875 5.8293 47.0995 6.7068 47.7235 7.362C48.3553 8.0094 49.1704 8.3331 50.1688 8.3331C50.98 8.3331 51.7327 8.1108 52.4269 7.6662L52.7428 8.3682C51.9784 8.8674 51.0931 9.117 50.0869 9.117C48.7999 9.117 47.7703 8.7192 46.9981 7.9236C46.2259 7.128 45.8398 6.0633 45.8398 4.7295C45.8398 3.3801 46.222 2.3115 46.9864 1.5237C47.7508 0.7359 48.7843 0.342 50.0869 0.342C51.0931 0.342 51.9784 0.5916 52.7428 1.0908L52.4269 1.7928C51.7327 1.3482 50.98 1.1259 50.1688 1.1259ZM58.178 4.1562C57.827 3.7194 57.3434 3.501 56.7272 3.501C56.111 3.501 55.6235 3.7194 55.2647 4.1562C54.9137 4.5852 54.7382 5.1858 54.7382 5.958C54.7382 6.7302 54.9137 7.3347 55.2647 7.7715C55.6235 8.2005 56.111 8.415 56.7272 8.415C57.3434 8.415 57.827 8.2005 58.178 7.7715C58.5368 7.3347 58.7162 6.7302 58.7162 5.958C58.7162 5.1858 58.5368 4.5852 58.178 4.1562ZM58.8098 8.2629C58.2872 8.8323 57.593 9.117 56.7272 9.117C55.8614 9.117 55.1672 8.8323 54.6446 8.2629C54.122 7.6935 53.8607 6.9252 53.8607 5.958C53.8607 4.9908 54.122 4.2225 54.6446 3.6531C55.1672 3.0837 55.8614 2.799 56.7272 2.799C57.593 2.799 58.2872 3.0837 58.8098 3.6531C59.3324 4.2225 59.5937 4.9908 59.5937 5.958C59.5937 6.9252 59.3324 7.6935 58.8098 8.2629ZM62.0282 4.1445C61.7084 4.5657 61.5485 5.1702 61.5485 5.958C61.5485 6.7458 61.7123 7.3542 62.0399 7.7832C62.3675 8.2044 62.8082 8.415 63.362 8.415C63.8924 8.415 64.3214 8.2083 64.649 7.7949C64.9844 7.3815 65.1521 6.7965 65.1521 6.0399V5.8761C65.1521 5.1351 64.9844 4.554 64.649 4.1328C64.3214 3.7116 63.8924 3.501 63.362 3.501C62.7926 3.501 62.348 3.7155 62.0282 4.1445ZM60.7061 5.958C60.7061 4.9362 60.9245 4.1562 61.3613 3.618C61.7981 3.072 62.3987 2.799 63.1631 2.799C64.0445 2.799 64.6997 3.1695 65.1287 3.9105H65.1521V0.224999H66.0062V9H65.1872L65.1755 7.9704H65.1521C64.7231 8.7348 64.0601 9.117 63.1631 9.117C62.4143 9.117 61.8176 8.844 61.373 8.298C60.9284 7.7442 60.7061 6.9642 60.7061 5.958ZM68.2891 6.2856C68.3047 6.9486 68.5075 7.4712 68.8975 7.8534C69.2875 8.2356 69.7945 8.4267 70.4185 8.4267C71.0191 8.4267 71.6158 8.2707 72.2086 7.9587L72.4426 8.6256C71.7874 8.9532 71.0854 9.117 70.3366 9.117C69.463 9.117 68.7571 8.8323 68.2189 8.2629C67.6807 7.6935 67.4116 6.9252 67.4116 5.958C67.4116 4.9752 67.6612 4.203 68.1604 3.6414C68.6674 3.0798 69.3538 2.799 70.2196 2.799C71.062 2.799 71.7133 3.0681 72.1735 3.6063C72.6415 4.1367 72.8755 4.9011 72.8755 5.8995C72.8755 6.0009 72.8677 6.1296 72.8521 6.2856H68.2891ZM68.2891 5.607H72.0331C72.0253 4.9284 71.8615 4.4058 71.5417 4.0392C71.2219 3.6726 70.7812 3.4893 70.2196 3.4893C69.6346 3.4893 69.1705 3.6765 68.8273 4.0509C68.4919 4.4175 68.3125 4.9362 68.2891 5.607ZM80.408 0.342C82.4672 0.342 83.4968 1.8045 83.4968 4.7295C83.4968 7.6545 82.4672 9.117 80.408 9.117C79.433 9.117 78.6764 8.7777 78.1382 8.0991C77.6 7.4205 77.3309 6.2973 77.3309 4.7295C77.3309 3.1617 77.6 2.0385 78.1382 1.3599C78.6764 0.6813 79.433 0.342 80.408 0.342ZM78.7934 7.5024C79.1522 8.0718 79.6904 8.3565 80.408 8.3565C81.1256 8.3565 81.6638 8.0718 82.0226 7.5024C82.3814 6.9252 82.5608 6.0009 82.5608 4.7295C82.5608 3.4581 82.3814 2.5377 82.0226 1.9683C81.6638 1.3911 81.1256 1.1025 80.408 1.1025C79.6904 1.1025 79.1522 1.3911 78.7934 1.9683C78.4424 2.5377 78.2669 3.4581 78.2669 4.7295C78.2669 6.0009 78.4424 6.9252 78.7934 7.5024ZM85.1595 9V7.362H86.2476V9H85.1595ZM91.0002 9V1.5822H90.9768L88.6719 3.7116L88.3092 2.9511L91.0002 0.459H91.9362V9H91.0002ZM95.7284 9V7.362H96.8165V9H95.7284ZM101.733 9L104.857 0.459H105.91L109.022 9H108.028L107.162 6.5079H103.559L102.704 9H101.733ZM103.816 5.7591H106.905L105.372 1.3014H105.349L103.816 5.7591ZM110.782 9V0.224999H111.683V9H110.782ZM114.141 9V0.224999H115.042V9H114.141ZM120.654 2.916H121.485L121.508 4.2147H121.531C122.218 3.2709 123.185 2.799 124.433 2.799V3.5361C123.567 3.5361 122.865 3.774 122.327 4.2498C121.797 4.7256 121.531 5.3418 121.531 6.0984V9H120.654V2.916ZM126.424 1.512V0.224999H127.324V1.512H126.424ZM126.424 9V2.916H127.324V9H126.424ZM130.035 5.841C130.035 6.5664 130.195 7.1397 130.514 7.5609C130.842 7.9743 131.271 8.181 131.801 8.181C132.34 8.181 132.78 7.9782 133.123 7.5726C133.467 7.167 133.638 6.6093 133.638 5.8995V5.7825C133.638 5.0805 133.467 4.5267 133.123 4.1211C132.78 3.7077 132.34 3.501 131.801 3.501C131.248 3.501 130.815 3.7038 130.503 4.1094C130.191 4.5072 130.035 5.0844 130.035 5.841ZM129.192 5.841C129.192 4.866 129.407 4.1172 129.836 3.5946C130.265 3.0642 130.858 2.799 131.614 2.799C132.527 2.799 133.201 3.1773 133.638 3.9339H133.662L133.673 2.916H134.492V8.4969C134.492 10.6263 133.545 11.691 131.649 11.691C130.986 11.691 130.354 11.5662 129.754 11.3166L129.953 10.6263C130.507 10.8681 131.072 10.989 131.649 10.989C132.336 10.989 132.839 10.7979 133.159 10.4157C133.478 10.0335 133.638 9.4056 133.638 8.532V7.7832H133.615C133.194 8.5164 132.527 8.883 131.614 8.883C130.904 8.883 130.323 8.61 129.871 8.064C129.418 7.5102 129.192 6.7692 129.192 5.841ZM136.309 0.224999H137.163V3.9573H137.186C137.701 3.1851 138.383 2.799 139.234 2.799C139.92 2.799 140.427 3.0135 140.755 3.4425C141.09 3.8637 141.258 4.5345 141.258 5.4549V9H140.415V5.5251C140.415 4.7685 140.306 4.2459 140.088 3.9573C139.869 3.6609 139.495 3.5127 138.965 3.5127C138.497 3.5127 138.079 3.7428 137.713 4.203C137.346 4.6554 137.163 5.1702 137.163 5.7474V9H136.309V0.224999ZM144.659 0.926999V3.15H146.964V3.852H144.659V7.0461C144.659 7.5921 144.733 7.9587 144.881 8.1459C145.03 8.3253 145.306 8.415 145.712 8.415C146.071 8.415 146.414 8.3487 146.742 8.2161L146.882 8.9064C146.484 9.0468 146.055 9.117 145.595 9.117C144.932 9.117 144.464 8.9766 144.191 8.6958C143.918 8.4072 143.782 7.9119 143.782 7.2099V3.852H142.436V3.15H143.782V0.926999H144.659ZM152.109 2.916H152.94L152.963 4.2147H152.987C153.673 3.2709 154.64 2.799 155.888 2.799V3.5361C155.022 3.5361 154.32 3.774 153.782 4.2498C153.252 4.7256 152.987 5.3418 152.987 6.0984V9H152.109V2.916ZM157.65 6.2856C157.666 6.9486 157.869 7.4712 158.259 7.8534C158.649 8.2356 159.156 8.4267 159.78 8.4267C160.38 8.4267 160.977 8.2707 161.57 7.9587L161.804 8.6256C161.148 8.9532 160.446 9.117 159.698 9.117C158.824 9.117 158.118 8.8323 157.58 8.2629C157.042 7.6935 156.773 6.9252 156.773 5.958C156.773 4.9752 157.022 4.203 157.521 3.6414C158.028 3.0798 158.715 2.799 159.581 2.799C160.423 2.799 161.074 3.0681 161.535 3.6063C162.003 4.1367 162.237 4.9011 162.237 5.8995C162.237 6.0009 162.229 6.1296 162.213 6.2856H157.65ZM157.65 5.607H161.394C161.386 4.9284 161.223 4.4058 160.903 4.0392C160.583 3.6726 160.142 3.4893 159.581 3.4893C158.996 3.4893 158.532 3.6765 158.188 4.0509C157.853 4.4175 157.674 4.9362 157.65 5.607ZM165.65 2.799C166.391 2.799 167.078 2.955 167.709 3.267L167.522 3.9573C166.922 3.6531 166.298 3.501 165.65 3.501C165.198 3.501 164.851 3.5829 164.609 3.7467C164.375 3.9105 164.258 4.1406 164.258 4.437C164.258 4.7178 164.359 4.9401 164.562 5.1039C164.773 5.2677 165.151 5.3964 165.697 5.49C166.493 5.6226 167.062 5.841 167.405 6.1452C167.756 6.4494 167.932 6.8667 167.932 7.3971C167.932 7.9275 167.729 8.3487 167.323 8.6607C166.925 8.9649 166.368 9.117 165.65 9.117C164.816 9.117 164.067 8.922 163.404 8.532L163.603 7.8417C164.242 8.2239 164.925 8.415 165.65 8.415C166.103 8.415 166.45 8.3292 166.691 8.1576C166.933 7.9782 167.054 7.7247 167.054 7.3971C167.054 7.0851 166.945 6.8433 166.727 6.6717C166.516 6.5001 166.142 6.3675 165.603 6.2739C164.831 6.1413 164.27 5.9307 163.919 5.6421C163.575 5.3457 163.404 4.944 163.404 4.437C163.404 3.9378 163.599 3.54 163.989 3.2436C164.387 2.9472 164.94 2.799 165.65 2.799ZM169.921 6.2856C169.937 6.9486 170.14 7.4712 170.53 7.8534C170.92 8.2356 171.427 8.4267 172.051 8.4267C172.651 8.4267 173.248 8.2707 173.841 7.9587L174.075 8.6256C173.42 8.9532 172.718 9.117 171.969 9.117C171.095 9.117 170.389 8.8323 169.851 8.2629C169.313 7.6935 169.044 6.9252 169.044 5.958C169.044 4.9752 169.294 4.203 169.793 3.6414C170.3 3.0798 170.986 2.799 171.852 2.799C172.694 2.799 173.346 3.0681 173.806 3.6063C174.274 4.1367 174.508 4.9011 174.508 5.8995C174.508 6.0009 174.5 6.1296 174.484 6.2856H169.921ZM169.921 5.607H173.665C173.658 4.9284 173.494 4.4058 173.174 4.0392C172.854 3.6726 172.414 3.4893 171.852 3.4893C171.267 3.4893 170.803 3.6765 170.46 4.0509C170.124 4.4175 169.945 4.9362 169.921 5.607ZM175.909 2.916H176.74L176.763 4.2147H176.787C177.473 3.2709 178.44 2.799 179.688 2.799V3.5361C178.822 3.5361 178.12 3.774 177.582 4.2498C177.052 4.7256 176.787 5.3418 176.787 6.0984V9H175.909V2.916ZM181.702 2.916L183.597 8.4735H183.621L185.504 2.916H186.44L184.194 9H182.989L180.743 2.916H181.702ZM188.02 6.2856C188.036 6.9486 188.238 7.4712 188.628 7.8534C189.018 8.2356 189.525 8.4267 190.149 8.4267C190.75 8.4267 191.347 8.2707 191.939 7.9587L192.173 8.6256C191.518 8.9532 190.816 9.117 190.067 9.117C189.194 9.117 188.488 8.8323 187.95 8.2629C187.412 7.6935 187.142 6.9252 187.142 5.958C187.142 4.9752 187.392 4.203 187.891 3.6414C188.398 3.0798 189.085 2.799 189.95 2.799C190.793 2.799 191.444 3.0681 191.904 3.6063C192.372 4.1367 192.606 4.9011 192.606 5.8995C192.606 6.0009 192.599 6.1296 192.583 6.2856H188.02ZM188.02 5.607H191.764C191.756 4.9284 191.592 4.4058 191.273 4.0392C190.953 3.6726 190.512 3.4893 189.95 3.4893C189.365 3.4893 188.901 3.6765 188.558 4.0509C188.223 4.4175 188.043 4.9362 188.02 5.607ZM195.093 4.1445C194.773 4.5657 194.613 5.1702 194.613 5.958C194.613 6.7458 194.777 7.3542 195.105 7.7832C195.432 8.2044 195.873 8.415 196.427 8.415C196.957 8.415 197.386 8.2083 197.714 7.7949C198.049 7.3815 198.217 6.7965 198.217 6.0399V5.8761C198.217 5.1351 198.049 4.554 197.714 4.1328C197.386 3.7116 196.957 3.501 196.427 3.501C195.857 3.501 195.413 3.7155 195.093 4.1445ZM193.771 5.958C193.771 4.9362 193.989 4.1562 194.426 3.618C194.863 3.072 195.463 2.799 196.228 2.799C197.109 2.799 197.764 3.1695 198.193 3.9105H198.217V0.224999H199.071V9H198.252L198.24 7.9704H198.217C197.788 8.7348 197.125 9.117 196.228 9.117C195.479 9.117 194.882 8.844 194.438 8.298C193.993 7.7442 193.771 6.9642 193.771 5.958ZM201.12 9V7.362H202.208V9H201.12Z" fill="#FCFCFC"/>
</svg>
